<?xml version="1.0" encoding="utf-8"?>
<!-- Generator: Adobe Illustrator 16.0.0, SVG Export Plug-In . SVG Version: 6.00 Build 0)  -->
<!DOCTYPE svg PUBLIC "-//W3C//DTD SVG 1.1//EN" "http://www.w3.org/Graphics/SVG/1.1/DTD/svg11.dtd">
<svg version="1.1" id="Layer_1" xmlns="http://www.w3.org/2000/svg" xmlns:xlink="http://www.w3.org/1999/xlink" x="0px" y="0px"
	 width="512px" height="512px" viewBox="0 0 512 512" enable-background="new 0 0 512 512" xml:space="preserve">
<g>
	<g>
		<path fill="#89C0C7" d="M512,256c0,139.186-111.065,252.415-249.423,255.923C260.373,511.962,258.208,512,256,512
			C114.611,512,0,397.393,0,256C0,114.611,114.611,0,256,0c127.016,0,232.369,92.477,252.496,213.742
			C510.819,227.488,512,241.627,512,256z"/>
		<path opacity="0.2" enable-background="new    " d="M512,256c0,139.186-111.065,252.415-249.423,255.923
			c-67.623-67.623-154.742-154.741-154.742-154.78c-6.224-0.435-11.146-5.593-11.146-11.896V122.842
			c0-6.657,5.396-12.011,12.054-12.011h294.516c6.381,0,11.542,4.923,11.974,11.146c0.945,0.077,43.758,42.416,93.266,91.766
			C510.819,227.488,512,241.627,512,256z"/>
		<rect x="210.773" y="350.157" fill="#2B303B" width="90.445" height="45.28"/>
		<g>
			<g>
				<path fill="#0D2038" d="M403.242,110.827c6.669,0,12.073,5.373,12.073,12.004v222.415c0,6.627-5.404,12.004-12.073,12.004
					h-294.5c-6.665,0-12.069-5.377-12.069-12.004V122.831c0-6.631,5.404-12.004,12.069-12.004H403.242z"/>
				<rect x="113.815" y="127.404" fill="#0D2038" width="284.357" height="213.269"/>
				<rect x="113.819" y="127.407" fill="#0D2038" width="284.35" height="16.7"/>
				<g>
					<path fill="#0D2038" d="M129.577,135.754c0,2.492-2.02,4.516-4.512,4.516c-2.488,0-4.512-2.023-4.512-4.516
						c0-2.484,2.023-4.508,4.512-4.508C127.558,131.246,129.577,133.27,129.577,135.754z"/>
					<path fill="#0D2038" d="M129.577,135.754c0,2.492-2.02,4.516-4.512,4.516c-2.488,0-4.512-2.023-4.512-4.516
						c0-2.484,2.023-4.508,4.512-4.508C127.558,131.246,129.577,133.27,129.577,135.754z"/>
				</g>
				<path fill="#0D2038" d="M142.069,135.754c0,2.492-2.02,4.516-4.512,4.516c-2.492,0-4.512-2.023-4.512-4.516
					c0-2.484,2.02-4.508,4.512-4.508C140.049,131.246,142.069,133.27,142.069,135.754z"/>
				<path fill="#0D2038" d="M154.565,135.754c0,2.492-2.023,4.516-4.516,4.516c-2.493,0-4.512-2.023-4.512-4.516
					c0-2.484,2.02-4.508,4.512-4.508C152.541,131.246,154.565,133.27,154.565,135.754z"/>
			</g>
			<g>
				<path fill="#2B303B" d="M403.242,110.827c6.669,0,12.073,5.373,12.073,12.004v222.415c0,6.627-5.404,12.004-12.073,12.004
					h-294.5c-6.665,0-12.069-5.377-12.069-12.004V122.831c0-6.631,5.404-12.004,12.069-12.004H403.242z"/>
				<rect x="113.815" y="127.404" fill="#FFFFFF" width="284.357" height="213.269"/>
				<rect x="113.819" y="127.407" opacity="0.8" fill="#D1CCE8" enable-background="new    " width="284.35" height="16.7"/>
				<g>
					<path fill="#E27C3E" d="M129.577,135.754c0,2.492-2.02,4.516-4.512,4.516c-2.488,0-4.512-2.023-4.512-4.516
						c0-2.484,2.023-4.508,4.512-4.508C127.558,131.246,129.577,133.27,129.577,135.754z"/>
				</g>
				<path fill="#EFC849" d="M142.069,135.754c0,2.492-2.02,4.516-4.512,4.516c-2.492,0-4.512-2.023-4.512-4.516
					c0-2.484,2.02-4.508,4.512-4.508C140.049,131.246,142.069,133.27,142.069,135.754z"/>
				<path fill="#1ABC9C" d="M154.565,135.754c0,2.492-2.023,4.516-4.516,4.516c-2.493,0-4.512-2.023-4.512-4.516
					c0-2.484,2.02-4.508,4.512-4.508C152.541,131.246,154.565,133.27,154.565,135.754z"/>
			</g>
		</g>
		<path fill="#2B303B" d="M338.323,396.585c0,2.538-2.06,4.597-4.598,4.597H178.241c-2.538,0-4.597-2.059-4.597-4.597v-2.296
			c0-2.538,2.059-4.598,4.597-4.598h155.484c2.538,0,4.598,2.06,4.598,4.598V396.585z"/>
		<path opacity="0.11" enable-background="new    " d="M398.173,267.691v72.98H254.111
			c-16.123-16.115-68.688-68.681-106.592-106.584l0.054-0.051l-0.054-0.046l16.75-16.754l0.05,0.046l29.338-29.334
			c2.877,2.881,13.258,13.266,23.643,23.642c10.377,10.377,20.75,20.762,23.627,23.627l0.893,0.896l27.758-45.3l18.762,11.492
			c-0.492,0.808,36.161,37.415,36.615,37.692l5.961-5.962c-13.746-13.746,3.75,3.746-29.334-29.33l16.754-16.758
			c18.265,18.266,26.011,26.004,28.526,28.512c-1.857-1.881-5.73-5.762-6.347-6.393c0.546,0.53,4,3.984,13.436,13.415
			C362.716,232.242,376.635,246.146,398.173,267.691z"/>
		<g>
			<polygon fill="#2B303B" points="210.407,204.708 193.657,187.954 164.323,217.288 164.27,217.238 147.52,233.988 
				147.573,234.038 147.52,234.092 164.27,250.842 164.323,250.792 193.657,280.123 210.407,263.373 181.073,234.038 			"/>
			<polygon fill="#2B303B" points="364.469,234.092 364.419,234.038 364.469,233.988 347.719,217.238 347.665,217.288 
				318.335,187.954 301.581,204.708 330.915,234.038 301.581,263.373 318.335,280.123 347.665,250.792 347.719,250.842 			"/>
			
				<rect x="245.004" y="190.072" transform="matrix(0.8526 0.5226 -0.5226 0.8526 160.0402 -99.2863)" fill="#2B303B" width="22" height="87.909"/>
		</g>
	</g>
</g>
</svg>
